HIERARCHY
ROOT Hips
{
	OFFSET 0.000000 0.000000 0.000000
	CHANNELS 6 Xposition Yposition Zposition Zrotation Yrotation Xrotation 
	JOINT LeftUpLeg_virtual
	{
		OFFSET 0.000000 0.000000 0.000000
		CHANNELS 3 Zrotation Yrotation Xrotation
		JOINT LeftUpLeg
		{
			OFFSET 10.205400 -3.823500 0.155100
			CHANNELS 3 Zrotation Yrotation Xrotation
			JOINT LeftLeg
			{
				OFFSET 0.708757 -12.982077 0.567790
				CHANNELS 3 Zrotation Yrotation Xrotation
				JOINT LeftFoot
				{
					OFFSET -0.708756 -10.717838 -2.184338
					CHANNELS 3 Zrotation Yrotation Xrotation
					JOINT LeftToeBase
					{
						OFFSET 0.108149 -7.191104 7.560241
						CHANNELS 3 Zrotation Yrotation Xrotation
						End Site
						{
							OFFSET 0.000000 0.000000 0.000000
						}
					}
				}
			}
		}
	}
	JOINT RightUpLeg_virtual
	{
		OFFSET 0.000000 0.000000 0.000000
		CHANNELS 3 Zrotation Yrotation Xrotation
		JOINT RightUpLeg
		{
			OFFSET -10.205400 -3.823500 0.005500
			CHANNELS 3 Zrotation Yrotation Xrotation
			JOINT RightLeg
			{
				OFFSET -0.708756 -12.982134 0.610632
				CHANNELS 3 Zrotation Yrotation Xrotation
				JOINT RightFoot
				{
					OFFSET 0.708754 -10.717769 -1.945823
					CHANNELS 3 Zrotation Yrotation Xrotation
					JOINT RightToeBase
					{
						OFFSET -0.108140 -7.191069 7.372968
						CHANNELS 3 Zrotation Yrotation Xrotation
						End Site
						{
							OFFSET 0.000000 0.000000 0.000000
						}
					}
				}
			}
		}
	}
	JOINT Spine_virtual
	{
		OFFSET 0.000000 0.000000 0.000000
		CHANNELS 3 Zrotation Yrotation Xrotation
		JOINT Spine
		{
			OFFSET 0.000000 6.876099 0.125700
			CHANNELS 3 Zrotation Yrotation Xrotation
			JOINT Spine1
			{
				OFFSET 0.000000 8.022060 0.146608
				CHANNELS 3 Zrotation Yrotation Xrotation
				JOINT Spine2
				{
					OFFSET 0.000000 9.168068 0.167552
					CHANNELS 3 Zrotation Yrotation Xrotation
					JOINT Neck_virtual
					{
						OFFSET 0.000000 0.000000 0.000000
						CHANNELS 3 Zrotation Yrotation Xrotation
						JOINT Neck
						{
							OFFSET 0.000000 10.314075 0.188496
							CHANNELS 3 Zrotation Yrotation Xrotation
							JOINT Head
							{
								OFFSET 0.000000 7.643700 -2.377400
								CHANNELS 3 Zrotation Yrotation Xrotation
								End Site
								{
									OFFSET 0.000000 0.000000 0.000000
								}
							}
						}
					}
					JOINT LeftShoulder_virtual
					{
						OFFSET 0.000000 0.000000 0.000000
						CHANNELS 3 Zrotation Yrotation Xrotation
						JOINT LeftShoulder
						{
							OFFSET 4.392200 8.824978 0.174984
							CHANNELS 3 Zrotation Yrotation Xrotation
							JOINT LeftArm
							{
								OFFSET 8.771219 -2.981674 -0.026999
								CHANNELS 3 Zrotation Yrotation Xrotation
								JOINT LeftForeArm
								{
									OFFSET 8.512804 0.000000 -0.000000
									CHANNELS 3 Zrotation Yrotation Xrotation
									JOINT LeftHand
									{
										OFFSET 18.484802 0.000000 -0.000000
										CHANNELS 3 Zrotation Yrotation Xrotation
										End Site
										{
											OFFSET 0.000000 0.000000 0.000000
										}
									}
								}
							}
						}
					}
					JOINT RightShoulder_virtual
					{
						OFFSET 0.000000 0.000000 0.000000
						CHANNELS 3 Zrotation Yrotation Xrotation
						JOINT RightShoulder
						{
							OFFSET -4.392200 8.824993 0.141379
							CHANNELS 3 Zrotation Yrotation Xrotation
							JOINT RightArm
							{
								OFFSET -8.771282 -2.981682 -0.094208
								CHANNELS 3 Zrotation Yrotation Xrotation
								JOINT RightForeArm
								{
									OFFSET -8.494598 0.000000 0.000000
									CHANNELS 3 Zrotation Yrotation Xrotation
									JOINT RightHand
									{
										OFFSET -18.483803 0.000000 0.000001
										CHANNELS 3 Zrotation Yrotation Xrotation
										End Site
										{
											OFFSET 0.000000 0.000000 0.000000
										}
									}
								}
							}
						}
					}
				}
			}
		}
	}
}
MOTION
Frames: 12
Frame Time: 0.033333
-12.549509 35.351116 -66.612122 0.249651 -69.152906 -0.088003 -3.594933 -3.452414 15.713161 -19.908562 -6.223065 -29.722962 20.871596 7.700925 20.306113 -0.882109 5.508345 9.770732 0.000000 0.000000 0.000000 -0.228932 -1.462815 14.256151 -6.568489 -1.659468 -23.778742 -2.434010 1.881779 52.268719 9.623554 5.366663 18.623494 0.000000 0.000000 0.000000 -1.659071 1.466651 0.524693 0.644615 0.421103 -12.942644 -0.559987 -3.211154 3.416885 0.032018 0.022942 -0.019104 -1.335080 -0.766717 8.215756 -8.242804 -2.056190 21.449058 0.000000 0.000000 0.000000 0.776574 -0.064451 5.117352 -9.908335 -6.463321 4.055559 -40.508657 35.693278 68.909157 -3.013894 -58.881053 9.699222 0.000000 0.000000 0.000000 -3.951512 1.306237 4.242031 36.378619 10.946677 14.469150 38.190146 -45.693221 45.429207 -12.793615 53.899967 -0.466950 0.000000 0.000000 0.000000 
-13.461126 35.436337 -65.771294 0.304671 -68.194665 -0.210071 -4.121576 -2.588729 15.508194 -20.480551 -4.814621 -26.794981 19.880700 7.618232 19.661466 -1.769434 5.551081 7.629374 0.000000 0.000000 0.000000 -0.618492 -0.554073 14.110011 -4.986914 -1.093790 -30.578074 -2.998229 2.435084 52.431018 9.030185 5.701839 18.566698 0.000000 0.000000 0.000000 -2.031315 2.087327 0.334438 1.011070 -0.132038 -12.416486 -0.544844 -3.441610 3.474884 0.008291 0.016745 0.070587 -1.320743 -1.177159 8.228719 -8.683305 -2.247895 21.298299 0.000000 0.000000 0.000000 0.872772 -0.370685 5.121657 -10.182636 -6.818346 4.083589 -40.393390 34.692812 69.709498 -2.892188 -58.542583 9.579361 0.000000 0.000000 0.000000 -3.904685 0.983336 4.289977 36.080642 10.302327 13.821640 39.257783 -46.252696 43.609788 -12.299111 53.083431 0.073086 0.000000 0.000000 0.000000 
-14.386203 35.515743 -64.956238 0.311817 -67.092641 -0.228940 -4.690028 -1.741243 15.509326 -20.209977 -4.651393 -24.005827 18.917563 8.218767 19.513306 -2.502770 5.640782 5.512557 0.000000 0.000000 0.000000 -0.767278 0.279512 14.027860 -3.523448 -0.167535 -36.153772 -3.806791 2.888159 48.905787 9.037879 5.790090 19.426106 0.000000 0.000000 0.000000 -2.391233 2.665460 0.204773 1.346254 -0.606906 -11.950410 -0.502639 -3.709717 3.535906 0.001596 -0.048062 0.002709 -1.352801 -1.444391 8.455028 -8.955452 -2.419489 21.109719 0.000000 0.000000 0.000000 0.916989 -0.545064 5.256017 -10.436135 -7.007638 4.313055 -40.386127 33.766768 70.231994 -2.978963 -58.348879 9.694254 0.000000 0.000000 0.000000 -3.826243 0.824017 4.595273 35.810900 9.872684 13.250727 40.047301 -46.529926 42.222057 -11.775699 51.931106 0.665640 0.000000 0.000000 0.000000 
-15.307636 35.545593 -64.164978 -0.257016 -65.645440 0.255998 -5.043021 -1.050805 15.580946 -20.088742 -3.989393 -21.478047 18.598428 8.467916 19.411872 -3.818840 5.008338 3.335205 0.000000 0.000000 0.000000 -0.626880 0.798380 14.035509 -2.117215 0.971569 -40.478187 -4.835181 3.031438 42.369808 9.503340 5.560674 21.148972 0.000000 0.000000 0.000000 -2.543076 2.990885 0.232069 1.698881 -0.685943 -11.463895 -0.410269 -3.834885 3.646024 -0.000886 -0.001823 0.032857 -1.309738 -1.477719 8.617711 -8.999555 -2.538274 20.986668 0.000000 0.000000 0.000000 0.914459 -0.715568 5.390905 -10.638823 -7.341167 4.493895 -40.292095 32.995616 70.762235 -2.820729 -58.389614 9.632706 0.000000 0.000000 0.000000 -3.783511 0.616367 4.736732 35.535149 9.409370 12.910115 40.850839 -46.515589 41.032317 -11.468017 50.690898 1.049325 0.000000 0.000000 0.000000 
-16.204306 35.516594 -63.377697 -0.498440 -63.628328 0.428524 -5.427339 -0.908208 15.881751 -19.797966 -3.474417 -19.312763 18.315094 8.400316 19.548753 -4.948870 4.220689 1.413897 0.000000 0.000000 0.000000 -0.543231 0.716559 14.123198 -0.821891 2.270443 -43.955006 -5.966697 2.788852 34.465100 10.188930 5.113485 23.306088 0.000000 0.000000 0.000000 -2.680023 3.220866 0.376556 1.918108 -0.760897 -11.041207 -0.378568 -4.040389 3.710809 -0.031183 -0.106643 0.043572 -1.336582 -1.599096 8.750096 -8.983218 -2.931847 20.827122 0.000000 0.000000 0.000000 0.941153 -0.864643 5.420896 -10.758660 -7.368238 4.746051 -40.214095 32.432136 70.925080 -2.817444 -58.610891 9.827410 0.000000 0.000000 0.000000 -3.714848 0.530598 4.866318 35.310637 9.087827 12.694407 41.355364 -46.340723 40.265232 -11.035651 49.616936 1.553765 0.000000 0.000000 0.000000 
-17.083231 35.452385 -62.584286 -0.774566 -61.349114 0.763908 -5.700929 -0.977080 16.150020 -19.652006 -3.061540 -17.203933 18.031744 8.230092 19.406082 -5.776707 3.250519 -0.007688 0.000000 0.000000 0.000000 -0.416275 0.487237 14.198416 0.413418 3.615625 -46.874898 -7.064707 2.271931 26.822529 10.941120 4.459023 25.241300 0.000000 0.000000 0.000000 -2.716222 3.024238 0.525416 2.090728 -0.497194 -10.732986 -0.331804 -4.047962 3.727276 -0.025120 -0.050081 0.045239 -1.272359 -1.736379 8.893255 -8.655340 -3.148705 20.733579 0.000000 0.000000 0.000000 0.921368 -0.997599 5.538716 -10.844582 -7.382412 4.919104 -39.887410 31.953117 70.989448 -2.879999 -58.950051 10.164018 0.000000 0.000000 0.000000 -3.744690 0.429399 4.891242 35.144786 8.865240 12.831069 41.920474 -46.035161 39.705119 -10.867873 48.838363 1.792277 0.000000 0.000000 0.000000 
-17.962088 35.374794 -61.738773 -0.993983 -58.856485 1.039024 -5.882778 -1.210574 16.929566 -19.391015 -2.517419 -15.903669 17.881632 7.762262 19.761662 -6.352498 2.022743 -1.022010 0.000000 0.000000 0.000000 -0.335642 0.279399 14.427690 1.592987 4.883820 -49.561789 -7.808212 1.773675 20.462931 11.302340 3.722407 27.081225 0.000000 0.000000 0.000000 -2.601304 2.884986 0.805417 2.203500 -0.166926 -10.524884 -0.357189 -4.084699 3.627950 -0.022121 -0.040413 0.024079 -1.307339 -1.699242 8.986657 -8.311675 -3.256678 20.716671 0.000000 0.000000 0.000000 0.864597 -1.011077 5.592488 -10.872663 -7.179281 5.080386 -39.480659 31.696244 70.776128 -3.045821 -59.206976 10.675221 0.000000 0.000000 0.000000 -3.782916 0.316826 5.026284 35.076211 8.892366 12.843048 42.138067 -45.790165 39.814812 -10.610673 48.406872 2.081416 0.000000 0.000000 0.000000 
-18.861570 35.287815 -60.846622 -1.046571 -56.149517 1.214423 -5.995634 -1.365696 17.498864 -19.144576 -1.554644 -14.571787 17.660620 6.822260 20.330762 -6.561641 0.688483 -2.011846 0.000000 0.000000 0.000000 -0.219390 -0.121641 14.698277 2.635238 6.050863 -51.819600 -8.387509 1.130300 16.328609 11.304492 3.144064 28.042465 0.000000 0.000000 0.000000 -2.446515 2.783487 1.159942 2.351633 0.223556 -10.470044 -0.368662 -4.225736 3.514165 -0.088513 -0.101948 0.039306 -1.492475 -1.605757 8.985854 -8.087627 -3.462285 20.779870 0.000000 0.000000 0.000000 0.695732 -1.073406 5.517059 -10.970348 -6.852444 5.386434 -39.171217 31.561450 70.301764 -2.944628 -59.243927 10.915815 0.000000 0.000000 0.000000 -3.997158 0.329152 4.977686 35.041398 8.946054 13.091729 42.333010 -45.436105 40.179489 -10.338746 48.469693 2.372223 0.000000 0.000000 0.000000 
-19.785967 35.200962 -59.865284 -0.937902 -53.213628 1.099707 -5.744124 -1.489967 17.976488 -18.663890 -1.597231 -12.914815 16.912972 3.613810 21.077110 -6.990055 -1.148992 -2.480143 0.000000 0.000000 0.000000 -0.229135 -0.294099 15.088707 3.400923 7.046371 -53.394939 -8.678141 0.660736 14.263998 11.049423 2.808677 28.243964 0.000000 0.000000 0.000000 -2.215959 2.548280 1.821820 2.437485 0.548334 -10.536876 -0.494230 -4.187108 3.319666 -0.070700 -0.080486 0.041520 -1.533458 -1.633580 8.941466 -7.572369 -3.636475 20.864331 0.000000 0.000000 0.000000 0.643228 -0.976488 5.404946 -10.995567 -6.469778 5.486450 -39.080437 31.756213 69.620508 -2.933222 -59.196648 11.227943 0.000000 0.000000 0.000000 -4.117667 0.356399 4.899600 35.117117 9.222244 13.435014 42.105934 -45.024197 41.137150 -10.306974 48.574349 2.429497 0.000000 0.000000 0.000000 
-20.743279 35.101799 -58.771362 -0.770137 -50.075156 0.866570 -5.406708 -1.514340 18.296863 -18.238789 -2.783773 -10.920511 15.871942 -0.041132 21.767941 -6.542327 -2.147143 -2.517562 0.000000 0.000000 0.000000 -0.159515 -0.440357 15.581135 3.826784 7.755907 -54.130530 -8.750018 0.581025 13.856016 10.527996 2.697042 28.014127 0.000000 0.000000 0.000000 -1.915996 2.418627 2.541565 2.497457 0.867237 -10.710579 -0.682785 -4.132218 3.180518 -0.046816 -0.036421 -0.020659 -1.520215 -1.866486 8.912385 -7.108896 -3.682140 21.014450 0.000000 0.000000 0.000000 0.633853 -1.021949 5.339533 -11.106574 -6.174477 5.633791 -39.294290 32.141296 68.872069 -2.784156 -59.182790 11.332278 0.000000 0.000000 0.000000 -4.137634 0.373141 4.817729 35.256993 9.571662 13.945105 41.627585 -44.554868 42.383988 -10.226711 48.922463 2.506056 0.000000 0.000000 0.000000 
-21.728737 34.995258 -57.605549 -0.363864 -46.635948 0.318324 -5.015751 -1.559674 18.543257 -17.703966 -5.464099 -8.580026 15.075332 -1.753144 22.459139 -6.886234 -3.610301 -1.984672 0.000000 0.000000 0.000000 -0.306908 -0.659864 16.044902 3.756169 8.266551 -53.789703 -8.601325 0.541845 14.644342 10.080405 2.868882 27.258435 0.000000 0.000000 0.000000 -1.799610 2.274108 3.337179 2.613818 1.093182 -10.929238 -0.770735 -4.154540 3.035933 -0.026563 -0.070903 -0.067866 -1.596804 -1.821516 8.839739 -6.820436 -3.799588 21.209590 0.000000 0.000000 0.000000 0.537390 -0.906444 5.253575 -11.204532 -5.952909 5.695640 -39.731186 32.549512 68.275643 -2.590355 -58.972939 11.308040 0.000000 0.000000 0.000000 -4.256796 0.403906 4.660250 35.390082 10.000285 14.389187 40.853045 -44.294463 43.957619 -10.267311 49.506441 2.484919 0.000000 0.000000 0.000000 
-22.716869 34.906334 -56.303814 -0.175532 -43.171816 0.069962 -4.520351 -1.576717 18.553478 -17.291669 -5.866485 -6.545542 14.337424 -3.295074 23.139576 -7.739795 -4.997752 -0.579136 0.000000 0.000000 0.000000 0.476393 -0.579333 16.233504 2.960152 7.851780 -52.728965 -7.857101 1.728695 14.464102 9.358117 3.660630 29.535650 0.000000 0.000000 0.000000 -1.576525 2.049926 3.889064 2.743862 1.275947 -11.223483 -0.831556 -4.060941 2.884080 0.008882 -0.043944 -0.013430 -1.622471 -1.549754 8.652257 -6.542677 -4.029251 21.426507 0.000000 0.000000 0.000000 0.517152 -0.778920 5.005773 -11.230971 -5.644113 5.673188 -40.395801 33.299529 67.644937 -2.320050 -58.757460 11.115650 0.000000 0.000000 0.000000 -4.229726 0.563820 4.465552 35.488884 10.544600 14.848845 40.045840 -44.178237 44.931027 -10.338175 50.305337 2.403262 0.000000 0.000000 0.000000 
